<?xml version="1.0" encoding="UTF-8"?>
<svg width="64" height="64" viewBox="0 0 64 64" xmlns="http://www.w3.org/2000/svg">
  <!-- Background -->
  <circle cx="32" cy="32" r="30" fill="#010A13" stroke="#C89B3C" stroke-width="2"/>
  
  <!-- Main Shield -->
  <path d="M32 8 L20 16 L20 32 C20 42 26 50 32 52 C38 50 44 42 44 32 L44 16 Z" fill="#1E2328" stroke="#C89B3C" stroke-width="1.5"/>
  
  <!-- Inner Design -->
  <path d="M32 12 L24 18 L24 30 C24 38 28 44 32 46 C36 44 40 38 40 30 L40 18 Z" fill="#010A13"/>
  
  <!-- Crossed Items -->
  <g transform="translate(32,28)">
    <!-- Item 1 -->
    <rect x="-1" y="-8" width="2" height="16" fill="#C89B3C" transform="rotate(-30)"/>
    <!-- Item 2 -->
    <rect x="-1" y="-8" width="2" height="16" fill="#C89B3C" transform="rotate(30)"/>
    <!-- Center gem -->
    <circle cx="0" cy="0" r="3" fill="#F0E6D2"/>
    <circle cx="0" cy="0" r="2" fill="#C89B3C"/>
  </g>
  
  <!-- Corner decorations -->
  <circle cx="32" cy="12" r="1.5" fill="#C89B3C"/>
  <circle cx="20" cy="20" r="1" fill="#F0E6D2"/>
  <circle cx="44" cy="20" r="1" fill="#F0E6D2"/>
</svg>